<?xml version="1.0" encoding="UTF-8" standalone="no"?><svg xmlns="http://www.w3.org/2000/svg" xmlns:xlink="http://www.w3.org/1999/xlink" contentScriptType="application/ecmascript" contentStyleType="text/css" height="193px" preserveAspectRatio="none" style="width:908px;height:193px;" version="1.1" viewBox="0 0 908 193" width="908px" zoomAndPan="magnify"><defs><filter height="300%" id="f1wsnlxhnlk9x1" width="300%" x="-1" y="-1"><feGaussianBlur result="blurOut" stdDeviation="2.0"/><feColorMatrix in="blurOut" result="blurOut2" type="matrix" values="0 0 0 0 0 0 0 0 0 0 0 0 0 0 0 0 0 0 .4 0"/><feOffset dx="4.0" dy="4.0" in="blurOut2" result="blurOut3"/><feBlend in="SourceGraphic" in2="blurOut3" mode="normal"/></filter></defs><g><!--cluster data--><polygon fill="#FF00FF" filter="url(#f1wsnlxhnlk9x1)" points="14,16,51,16,58,42.7199,886,42.7199,886,181,14,181,14,16" style="stroke: #000000; stroke-width: 1.5;"/><line style="stroke: #000000; stroke-width: 1.5;" x1="14" x2="58" y1="42.7199" y2="42.7199"/><text fill="#000000" font-family="sans-serif" font-size="14" font-weight="bold" lengthAdjust="spacingAndGlyphs" textLength="31" x="18" y="34.2399">data</text><!--cluster raw_imagery--><polygon fill="#87CEFA" filter="url(#f1wsnlxhnlk9x1)" points="523,47,619,47,626,73.7199,878,73.7199,878,173,523,173,523,47" style="stroke: #000000; stroke-width: 1.5;"/><line style="stroke: #000000; stroke-width: 1.5;" x1="523" x2="626" y1="73.7199" y2="73.7199"/><text fill="#000000" font-family="sans-serif" font-size="14" font-weight="bold" lengthAdjust="spacingAndGlyphs" textLength="90" x="527" y="65.2399">raw_imagery</text><!--cluster flights--><polygon fill="#CCCCEE" filter="url(#f1wsnlxhnlk9x1)" points="707,78,756,78,763,104.7199,870,104.7199,870,165,707,165,707,78" style="stroke: #000000; stroke-width: 1.5;"/><line style="stroke: #000000; stroke-width: 1.5;" x1="707" x2="763" y1="104.7199" y2="104.7199"/><text fill="#000000" font-family="sans-serif" font-size="14" font-weight="bold" lengthAdjust="spacingAndGlyphs" textLength="43" x="711" y="96.2399">flights</text><!--cluster flights_logs--><polygon fill="#CCCCEE" filter="url(#f1wsnlxhnlk9x1)" points="531,78,616,78,623,104.7199,688,104.7199,688,165,531,165,531,78" style="stroke: #000000; stroke-width: 1.5;"/><line style="stroke: #000000; stroke-width: 1.5;" x1="531" x2="623" y1="104.7199" y2="104.7199"/><text fill="#000000" font-family="sans-serif" font-size="14" font-weight="bold" lengthAdjust="spacingAndGlyphs" textLength="79" x="535" y="96.2399">flights_logs</text><!--cluster rasters--><polygon fill="#90EE90" filter="url(#f1wsnlxhnlk9x1)" points="226,47,280,47,287,73.7199,515,73.7199,515,173,226,173,226,47" style="stroke: #000000; stroke-width: 1.5;"/><line style="stroke: #000000; stroke-width: 1.5;" x1="226" x2="287" y1="73.7199" y2="73.7199"/><text fill="#000000" font-family="sans-serif" font-size="14" font-weight="bold" lengthAdjust="spacingAndGlyphs" textLength="48" x="230" y="65.2399">rasters</text><!--cluster elevation--><polygon fill="#90EE90" filter="url(#f1wsnlxhnlk9x1)" points="427,78,497,78,504,104.7199,507,104.7199,507,165,427,165,427,78" style="stroke: #000000; stroke-width: 1.5;"/><line style="stroke: #000000; stroke-width: 1.5;" x1="427" x2="504" y1="104.7199" y2="104.7199"/><text fill="#000000" font-family="sans-serif" font-size="14" font-weight="bold" lengthAdjust="spacingAndGlyphs" textLength="64" x="431" y="96.2399">elevation</text><!--cluster spectral--><polygon fill="#CCCCEE" filter="url(#f1wsnlxhnlk9x1)" points="234,78,295,78,302,104.7199,419,104.7199,419,165,234,165,234,78" style="stroke: #000000; stroke-width: 1.5;"/><line style="stroke: #000000; stroke-width: 1.5;" x1="234" x2="302" y1="104.7199" y2="104.7199"/><text fill="#000000" font-family="sans-serif" font-size="14" font-weight="bold" lengthAdjust="spacingAndGlyphs" textLength="55" x="238" y="96.2399">spectral</text><!--cluster pointclouds--><polygon fill="#CCCCEE" filter="url(#f1wsnlxhnlk9x1)" points="22,47,110,47,117,73.7199,218,73.7199,218,173,22,173,22,47" style="stroke: #000000; stroke-width: 1.5;"/><line style="stroke: #000000; stroke-width: 1.5;" x1="22" x2="117" y1="73.7199" y2="73.7199"/><text fill="#000000" font-family="sans-serif" font-size="14" font-weight="bold" lengthAdjust="spacingAndGlyphs" textLength="82" x="26" y="65.2399">pointclouds</text><!--cluster compressed--><polygon fill="#CCCCEE" filter="url(#f1wsnlxhnlk9x1)" points="110,78,200,78,207,104.7199,210,104.7199,210,165,110,165,110,78" style="stroke: #000000; stroke-width: 1.5;"/><line style="stroke: #000000; stroke-width: 1.5;" x1="110" x2="207" y1="104.7199" y2="104.7199"/><text fill="#000000" font-family="sans-serif" font-size="14" font-weight="bold" lengthAdjust="spacingAndGlyphs" textLength="84" x="114" y="96.2399">compressed</text><!--cluster entwine--><polygon fill="#CCCCEE" filter="url(#f1wsnlxhnlk9x1)" points="30,78,92,78,99,104.7199,102,104.7199,102,165,30,165,30,78" style="stroke: #000000; stroke-width: 1.5;"/><line style="stroke: #000000; stroke-width: 1.5;" x1="30" x2="99" y1="104.7199" y2="104.7199"/><text fill="#000000" font-family="sans-serif" font-size="14" font-weight="bold" lengthAdjust="spacingAndGlyphs" textLength="56" x="34" y="96.2399">entwine</text><!--class jpeg--><rect fill="#FEFECE" filter="url(#f1wsnlxhnlk9x1)" height="48" id="jpeg" style="stroke: #A80036; stroke-width: 1.5;" width="58" x="804" y="109"/><ellipse cx="819" cy="125" fill="#ADD1B2" rx="11" ry="11" style="stroke: #A80036; stroke-width: 1.0;"/><path d="M813.5781,124.8594 Q813.5781,123.4375 813.9844,122.3125 Q814.3906,121.1875 815.1016,120.3828 Q815.8125,119.5781 816.8047,119.1484 Q817.7969,118.7188 818.9844,118.7188 Q820.0938,118.7188 820.9453,119.1719 Q821.7969,119.625 822.5469,120.4375 L821.1406,122.0156 Q820.5,121.3594 820.0391,121.125 Q819.5781,120.8906 818.9844,120.8906 Q818.3125,120.8906 817.7734,121.1563 Q817.2344,121.4219 816.8438,121.9141 Q816.4531,122.4063 816.2344,123.1406 Q816.0156,123.875 816.0156,124.8125 Q816.0156,125.7656 816.2344,126.5156 Q816.4531,127.2656 816.8516,127.7578 Q817.25,128.25 817.7891,128.5156 Q818.3281,128.7813 819.0156,128.7813 Q819.6406,128.7813 820.1484,128.5078 Q820.6563,128.2344 821.375,127.4375 L822.7813,129 Q821.875,130.0625 820.9688,130.5078 Q820.0625,130.9531 818.9063,130.9531 Q817.7969,130.9531 816.8047,130.5391 Q815.8125,130.125 815.1016,129.3281 Q814.3906,128.5313 813.9844,127.4141 Q813.5781,126.2969 813.5781,124.8594 Z "/><text fill="#000000" font-family="sans-serif" font-size="12" lengthAdjust="spacingAndGlyphs" textLength="26" x="833" y="130.04">jpeg</text><line style="stroke: #A80036; stroke-width: 1.5;" x1="805" x2="861" y1="141" y2="141"/><line style="stroke: #A80036; stroke-width: 1.5;" x1="805" x2="861" y1="149" y2="149"/><!--class raw--><rect fill="#FEFECE" filter="url(#f1wsnlxhnlk9x1)" height="48" id="raw" style="stroke: #A80036; stroke-width: 1.5;" width="54" x="715" y="109"/><ellipse cx="730" cy="125" fill="#ADD1B2" rx="11" ry="11" style="stroke: #A80036; stroke-width: 1.0;"/><path d="M724.5781,124.8594 Q724.5781,123.4375 724.9844,122.3125 Q725.3906,121.1875 726.1016,120.3828 Q726.8125,119.5781 727.8047,119.1484 Q728.7969,118.7188 729.9844,118.7188 Q731.0938,118.7188 731.9453,119.1719 Q732.7969,119.625 733.5469,120.4375 L732.1406,122.0156 Q731.5,121.3594 731.0391,121.125 Q730.5781,120.8906 729.9844,120.8906 Q729.3125,120.8906 728.7734,121.1563 Q728.2344,121.4219 727.8438,121.9141 Q727.4531,122.4063 727.2344,123.1406 Q727.0156,123.875 727.0156,124.8125 Q727.0156,125.7656 727.2344,126.5156 Q727.4531,127.2656 727.8516,127.7578 Q728.25,128.25 728.7891,128.5156 Q729.3281,128.7813 730.0156,128.7813 Q730.6406,128.7813 731.1484,128.5078 Q731.6563,128.2344 732.375,127.4375 L733.7813,129 Q732.875,130.0625 731.9688,130.5078 Q731.0625,130.9531 729.9063,130.9531 Q728.7969,130.9531 727.8047,130.5391 Q726.8125,130.125 726.1016,129.3281 Q725.3906,128.5313 724.9844,127.4141 Q724.5781,126.2969 724.5781,124.8594 Z "/><text fill="#000000" font-family="sans-serif" font-size="12" lengthAdjust="spacingAndGlyphs" textLength="22" x="744" y="130.04">raw</text><line style="stroke: #A80036; stroke-width: 1.5;" x1="716" x2="768" y1="141" y2="141"/><line style="stroke: #A80036; stroke-width: 1.5;" x1="716" x2="768" y1="149" y2="149"/><!--class gpx--><rect fill="#FEFECE" filter="url(#f1wsnlxhnlk9x1)" height="48" id="gpx" style="stroke: #A80036; stroke-width: 1.5;" width="54" x="626" y="109"/><ellipse cx="641" cy="125" fill="#ADD1B2" rx="11" ry="11" style="stroke: #A80036; stroke-width: 1.0;"/><path d="M635.5781,124.8594 Q635.5781,123.4375 635.9844,122.3125 Q636.3906,121.1875 637.1016,120.3828 Q637.8125,119.5781 638.8047,119.1484 Q639.7969,118.7188 640.9844,118.7188 Q642.0938,118.7188 642.9453,119.1719 Q643.7969,119.625 644.5469,120.4375 L643.1406,122.0156 Q642.5,121.3594 642.0391,121.125 Q641.5781,120.8906 640.9844,120.8906 Q640.3125,120.8906 639.7734,121.1563 Q639.2344,121.4219 638.8438,121.9141 Q638.4531,122.4063 638.2344,123.1406 Q638.0156,123.875 638.0156,124.8125 Q638.0156,125.7656 638.2344,126.5156 Q638.4531,127.2656 638.8516,127.7578 Q639.25,128.25 639.7891,128.5156 Q640.3281,128.7813 641.0156,128.7813 Q641.6406,128.7813 642.1484,128.5078 Q642.6563,128.2344 643.375,127.4375 L644.7813,129 Q643.875,130.0625 642.9688,130.5078 Q642.0625,130.9531 640.9063,130.9531 Q639.7969,130.9531 638.8047,130.5391 Q637.8125,130.125 637.1016,129.3281 Q636.3906,128.5313 635.9844,127.4141 Q635.5781,126.2969 635.5781,124.8594 Z "/><text fill="#000000" font-family="sans-serif" font-size="12" lengthAdjust="spacingAndGlyphs" textLength="22" x="655" y="130.04">gpx</text><line style="stroke: #A80036; stroke-width: 1.5;" x1="627" x2="679" y1="141" y2="141"/><line style="stroke: #A80036; stroke-width: 1.5;" x1="627" x2="679" y1="149" y2="149"/><!--class csv--><rect fill="#FEFECE" filter="url(#f1wsnlxhnlk9x1)" height="48" id="csv" style="stroke: #A80036; stroke-width: 1.5;" width="51" x="539.5" y="109"/><ellipse cx="554.5" cy="125" fill="#ADD1B2" rx="11" ry="11" style="stroke: #A80036; stroke-width: 1.0;"/><path d="M549.0781,124.8594 Q549.0781,123.4375 549.4844,122.3125 Q549.8906,121.1875 550.6016,120.3828 Q551.3125,119.5781 552.3047,119.1484 Q553.2969,118.7188 554.4844,118.7188 Q555.5938,118.7188 556.4453,119.1719 Q557.2969,119.625 558.0469,120.4375 L556.6406,122.0156 Q556,121.3594 555.5391,121.125 Q555.0781,120.8906 554.4844,120.8906 Q553.8125,120.8906 553.2734,121.1563 Q552.7344,121.4219 552.3438,121.9141 Q551.9531,122.4063 551.7344,123.1406 Q551.5156,123.875 551.5156,124.8125 Q551.5156,125.7656 551.7344,126.5156 Q551.9531,127.2656 552.3516,127.7578 Q552.75,128.25 553.2891,128.5156 Q553.8281,128.7813 554.5156,128.7813 Q555.1406,128.7813 555.6484,128.5078 Q556.1563,128.2344 556.875,127.4375 L558.2813,129 Q557.375,130.0625 556.4688,130.5078 Q555.5625,130.9531 554.4063,130.9531 Q553.2969,130.9531 552.3047,130.5391 Q551.3125,130.125 550.6016,129.3281 Q549.8906,128.5313 549.4844,127.4141 Q549.0781,126.2969 549.0781,124.8594 Z "/><text fill="#000000" font-family="sans-serif" font-size="12" lengthAdjust="spacingAndGlyphs" textLength="19" x="568.5" y="130.04">csv</text><line style="stroke: #A80036; stroke-width: 1.5;" x1="540.5" x2="589.5" y1="141" y2="141"/><line style="stroke: #A80036; stroke-width: 1.5;" x1="540.5" x2="589.5" y1="149" y2="149"/><!--class tiff--><rect fill="#FEFECE" filter="url(#f1wsnlxhnlk9x1)" height="48" id="tiff" style="stroke: #A80036; stroke-width: 1.5;" width="49" x="447.5" y="109"/><ellipse cx="462.5" cy="125" fill="#ADD1B2" rx="11" ry="11" style="stroke: #A80036; stroke-width: 1.0;"/><path d="M457.0781,124.8594 Q457.0781,123.4375 457.4844,122.3125 Q457.8906,121.1875 458.6016,120.3828 Q459.3125,119.5781 460.3047,119.1484 Q461.2969,118.7188 462.4844,118.7188 Q463.5938,118.7188 464.4453,119.1719 Q465.2969,119.625 466.0469,120.4375 L464.6406,122.0156 Q464,121.3594 463.5391,121.125 Q463.0781,120.8906 462.4844,120.8906 Q461.8125,120.8906 461.2734,121.1563 Q460.7344,121.4219 460.3438,121.9141 Q459.9531,122.4063 459.7344,123.1406 Q459.5156,123.875 459.5156,124.8125 Q459.5156,125.7656 459.7344,126.5156 Q459.9531,127.2656 460.3516,127.7578 Q460.75,128.25 461.2891,128.5156 Q461.8281,128.7813 462.5156,128.7813 Q463.1406,128.7813 463.6484,128.5078 Q464.1563,128.2344 464.875,127.4375 L466.2813,129 Q465.375,130.0625 464.4688,130.5078 Q463.5625,130.9531 462.4063,130.9531 Q461.2969,130.9531 460.3047,130.5391 Q459.3125,130.125 458.6016,129.3281 Q457.8906,128.5313 457.4844,127.4141 Q457.0781,126.2969 457.0781,124.8594 Z "/><text fill="#000000" font-family="sans-serif" font-size="12" lengthAdjust="spacingAndGlyphs" textLength="17" x="476.5" y="130.04">tiff</text><line style="stroke: #A80036; stroke-width: 1.5;" x1="448.5" x2="495.5" y1="141" y2="141"/><line style="stroke: #A80036; stroke-width: 1.5;" x1="448.5" x2="495.5" y1="149" y2="149"/><!--class cog-tiff--><rect fill="#FEFECE" filter="url(#f1wsnlxhnlk9x1)" height="48" id="cog-tiff" style="stroke: #A80036; stroke-width: 1.5;" width="74" x="337" y="109"/><ellipse cx="352" cy="125" fill="#ADD1B2" rx="11" ry="11" style="stroke: #A80036; stroke-width: 1.0;"/><path d="M346.5781,124.8594 Q346.5781,123.4375 346.9844,122.3125 Q347.3906,121.1875 348.1016,120.3828 Q348.8125,119.5781 349.8047,119.1484 Q350.7969,118.7188 351.9844,118.7188 Q353.0938,118.7188 353.9453,119.1719 Q354.7969,119.625 355.5469,120.4375 L354.1406,122.0156 Q353.5,121.3594 353.0391,121.125 Q352.5781,120.8906 351.9844,120.8906 Q351.3125,120.8906 350.7734,121.1563 Q350.2344,121.4219 349.8438,121.9141 Q349.4531,122.4063 349.2344,123.1406 Q349.0156,123.875 349.0156,124.8125 Q349.0156,125.7656 349.2344,126.5156 Q349.4531,127.2656 349.8516,127.7578 Q350.25,128.25 350.7891,128.5156 Q351.3281,128.7813 352.0156,128.7813 Q352.6406,128.7813 353.1484,128.5078 Q353.6563,128.2344 354.375,127.4375 L355.7813,129 Q354.875,130.0625 353.9688,130.5078 Q353.0625,130.9531 351.9063,130.9531 Q350.7969,130.9531 349.8047,130.5391 Q348.8125,130.125 348.1016,129.3281 Q347.3906,128.5313 346.9844,127.4141 Q346.5781,126.2969 346.5781,124.8594 Z "/><text fill="#000000" font-family="sans-serif" font-size="12" lengthAdjust="spacingAndGlyphs" textLength="42" x="366" y="130.04">cog-tiff</text><line style="stroke: #A80036; stroke-width: 1.5;" x1="338" x2="410" y1="141" y2="141"/><line style="stroke: #A80036; stroke-width: 1.5;" x1="338" x2="410" y1="149" y2="149"/><!--class hdf5--><rect fill="#FEFECE" filter="url(#f1wsnlxhnlk9x1)" height="48" id="hdf5" style="stroke: #A80036; stroke-width: 1.5;" width="59" x="242.5" y="109"/><ellipse cx="257.5" cy="125" fill="#ADD1B2" rx="11" ry="11" style="stroke: #A80036; stroke-width: 1.0;"/><path d="M252.0781,124.8594 Q252.0781,123.4375 252.4844,122.3125 Q252.8906,121.1875 253.6016,120.3828 Q254.3125,119.5781 255.3047,119.1484 Q256.2969,118.7188 257.4844,118.7188 Q258.5938,118.7188 259.4453,119.1719 Q260.2969,119.625 261.0469,120.4375 L259.6406,122.0156 Q259,121.3594 258.5391,121.125 Q258.0781,120.8906 257.4844,120.8906 Q256.8125,120.8906 256.2734,121.1563 Q255.7344,121.4219 255.3438,121.9141 Q254.9531,122.4063 254.7344,123.1406 Q254.5156,123.875 254.5156,124.8125 Q254.5156,125.7656 254.7344,126.5156 Q254.9531,127.2656 255.3516,127.7578 Q255.75,128.25 256.2891,128.5156 Q256.8281,128.7813 257.5156,128.7813 Q258.1406,128.7813 258.6484,128.5078 Q259.1563,128.2344 259.875,127.4375 L261.2813,129 Q260.375,130.0625 259.4688,130.5078 Q258.5625,130.9531 257.4063,130.9531 Q256.2969,130.9531 255.3047,130.5391 Q254.3125,130.125 253.6016,129.3281 Q252.8906,128.5313 252.4844,127.4141 Q252.0781,126.2969 252.0781,124.8594 Z "/><text fill="#000000" font-family="sans-serif" font-size="12" lengthAdjust="spacingAndGlyphs" textLength="27" x="271.5" y="130.04">hdf5</text><line style="stroke: #A80036; stroke-width: 1.5;" x1="243.5" x2="300.5" y1="141" y2="141"/><line style="stroke: #A80036; stroke-width: 1.5;" x1="243.5" x2="300.5" y1="149" y2="149"/><!--class laz--><rect fill="#FEFECE" filter="url(#f1wsnlxhnlk9x1)" height="48" id="laz" style="stroke: #A80036; stroke-width: 1.5;" width="49" x="139.5" y="109"/><ellipse cx="154.5" cy="125" fill="#ADD1B2" rx="11" ry="11" style="stroke: #A80036; stroke-width: 1.0;"/><path d="M149.0781,124.8594 Q149.0781,123.4375 149.4844,122.3125 Q149.8906,121.1875 150.6016,120.3828 Q151.3125,119.5781 152.3047,119.1484 Q153.2969,118.7188 154.4844,118.7188 Q155.5938,118.7188 156.4453,119.1719 Q157.2969,119.625 158.0469,120.4375 L156.6406,122.0156 Q156,121.3594 155.5391,121.125 Q155.0781,120.8906 154.4844,120.8906 Q153.8125,120.8906 153.2734,121.1563 Q152.7344,121.4219 152.3438,121.9141 Q151.9531,122.4063 151.7344,123.1406 Q151.5156,123.875 151.5156,124.8125 Q151.5156,125.7656 151.7344,126.5156 Q151.9531,127.2656 152.3516,127.7578 Q152.75,128.25 153.2891,128.5156 Q153.8281,128.7813 154.5156,128.7813 Q155.1406,128.7813 155.6484,128.5078 Q156.1563,128.2344 156.875,127.4375 L158.2813,129 Q157.375,130.0625 156.4688,130.5078 Q155.5625,130.9531 154.4063,130.9531 Q153.2969,130.9531 152.3047,130.5391 Q151.3125,130.125 150.6016,129.3281 Q149.8906,128.5313 149.4844,127.4141 Q149.0781,126.2969 149.0781,124.8594 Z "/><text fill="#000000" font-family="sans-serif" font-size="12" lengthAdjust="spacingAndGlyphs" textLength="17" x="168.5" y="130.04">laz</text><line style="stroke: #A80036; stroke-width: 1.5;" x1="140.5" x2="187.5" y1="141" y2="141"/><line style="stroke: #A80036; stroke-width: 1.5;" x1="140.5" x2="187.5" y1="149" y2="149"/><!--class ept--><rect fill="#FEFECE" filter="url(#f1wsnlxhnlk9x1)" height="48" id="ept" style="stroke: #A80036; stroke-width: 1.5;" width="52" x="40" y="109"/><ellipse cx="55" cy="125" fill="#ADD1B2" rx="11" ry="11" style="stroke: #A80036; stroke-width: 1.0;"/><path d="M49.5781,124.8594 Q49.5781,123.4375 49.9844,122.3125 Q50.3906,121.1875 51.1016,120.3828 Q51.8125,119.5781 52.8047,119.1484 Q53.7969,118.7188 54.9844,118.7188 Q56.0938,118.7188 56.9453,119.1719 Q57.7969,119.625 58.5469,120.4375 L57.1406,122.0156 Q56.5,121.3594 56.0391,121.125 Q55.5781,120.8906 54.9844,120.8906 Q54.3125,120.8906 53.7734,121.1563 Q53.2344,121.4219 52.8438,121.9141 Q52.4531,122.4063 52.2344,123.1406 Q52.0156,123.875 52.0156,124.8125 Q52.0156,125.7656 52.2344,126.5156 Q52.4531,127.2656 52.8516,127.7578 Q53.25,128.25 53.7891,128.5156 Q54.3281,128.7813 55.0156,128.7813 Q55.6406,128.7813 56.1484,128.5078 Q56.6563,128.2344 57.375,127.4375 L58.7813,129 Q57.875,130.0625 56.9688,130.5078 Q56.0625,130.9531 54.9063,130.9531 Q53.7969,130.9531 52.8047,130.5391 Q51.8125,130.125 51.1016,129.3281 Q50.3906,128.5313 49.9844,127.4141 Q49.5781,126.2969 49.5781,124.8594 Z "/><text fill="#000000" font-family="sans-serif" font-size="12" lengthAdjust="spacingAndGlyphs" textLength="20" x="69" y="130.04">ept</text><line style="stroke: #A80036; stroke-width: 1.5;" x1="41" x2="91" y1="141" y2="141"/><line style="stroke: #A80036; stroke-width: 1.5;" x1="41" x2="91" y1="149" y2="149"/><!--
@startuml
package data #FF00FF {
  package raw_imagery #LightSkyBlue {
      package flights #CCCCEE { 
        class jpeg
        class raw
      }
      package flights_logs #CCCCEE { 
        class gpx
        class csv
      }
    }
  package rasters #LightGreen {
      package elevation {
        class tiff
    }
      package spectral #CCCCEE {
        class cog-tiff
        class hdf5
    }
  }
  package pointclouds #CCCCEE {
      package compressed {
        class laz
    }
      package entwine {
        class ept
    }
  }
}
@enduml

PlantUML version 1.2019.08(Sat Jul 13 19:25:14 GMT 2019)
(GPL source distribution)
Java Runtime: OpenJDK Runtime Environment
JVM: OpenJDK 64-Bit Server VM
Java Version: 1.8.0_222-b10
Operating System: Linux
OS Version: 4.9.184-linuxkit
Default Encoding: UTF-8
Language: en
Country: US
--></g></svg>